<mxfile host="app.diagrams.net" modified="2022-05-31T08:45:02.027Z" agent="5.0 (Windows NT 10.0; Win64; x64) AppleWebKit/537.36 (KHTML, like Gecko) Chrome/101.0.4951.64 Safari/537.36 Edg/101.0.1210.53" etag="j9rWL1k2fwHwczWaY3Lt" version="18.1.3" type="github">
  <diagram id="XjbqpJdhUiOvkomr6DlP" name="Page-1">
    <mxGraphModel dx="1796" dy="666" grid="1" gridSize="10" guides="1" tooltips="1" connect="1" arrows="1" fold="1" page="1" pageScale="1" pageWidth="827" pageHeight="1169" math="0" shadow="0">
      <root>
        <mxCell id="0" />
        <mxCell id="1" parent="0" />
        <mxCell id="a3kX9UNYA6Rp2T8UEnDV-3" value="" style="edgeStyle=orthogonalEdgeStyle;rounded=0;orthogonalLoop=1;jettySize=auto;html=1;" edge="1" parent="1" source="a3kX9UNYA6Rp2T8UEnDV-1" target="a3kX9UNYA6Rp2T8UEnDV-2">
          <mxGeometry relative="1" as="geometry" />
        </mxCell>
        <mxCell id="a3kX9UNYA6Rp2T8UEnDV-1" value="JIRA TIcket" style="rounded=1;whiteSpace=wrap;html=1;" vertex="1" parent="1">
          <mxGeometry x="70" y="20" width="120" height="60" as="geometry" />
        </mxCell>
        <mxCell id="a3kX9UNYA6Rp2T8UEnDV-5" value="" style="edgeStyle=orthogonalEdgeStyle;rounded=0;orthogonalLoop=1;jettySize=auto;html=1;" edge="1" parent="1" source="a3kX9UNYA6Rp2T8UEnDV-2" target="a3kX9UNYA6Rp2T8UEnDV-4">
          <mxGeometry relative="1" as="geometry" />
        </mxCell>
        <mxCell id="a3kX9UNYA6Rp2T8UEnDV-2" value="DEV Receive" style="rounded=1;whiteSpace=wrap;html=1;" vertex="1" parent="1">
          <mxGeometry x="70" y="160" width="120" height="60" as="geometry" />
        </mxCell>
        <mxCell id="a3kX9UNYA6Rp2T8UEnDV-7" value="" style="edgeStyle=orthogonalEdgeStyle;rounded=0;orthogonalLoop=1;jettySize=auto;html=1;" edge="1" parent="1" source="a3kX9UNYA6Rp2T8UEnDV-4" target="a3kX9UNYA6Rp2T8UEnDV-6">
          <mxGeometry relative="1" as="geometry" />
        </mxCell>
        <mxCell id="a3kX9UNYA6Rp2T8UEnDV-4" value="Requester/DEV Review" style="whiteSpace=wrap;html=1;rounded=1;" vertex="1" parent="1">
          <mxGeometry x="70" y="300" width="120" height="60" as="geometry" />
        </mxCell>
        <mxCell id="a3kX9UNYA6Rp2T8UEnDV-9" value="" style="edgeStyle=orthogonalEdgeStyle;rounded=0;orthogonalLoop=1;jettySize=auto;html=1;" edge="1" parent="1" source="a3kX9UNYA6Rp2T8UEnDV-6" target="a3kX9UNYA6Rp2T8UEnDV-8">
          <mxGeometry relative="1" as="geometry" />
        </mxCell>
        <mxCell id="a3kX9UNYA6Rp2T8UEnDV-6" value="weekly meeting&lt;br&gt;update status" style="whiteSpace=wrap;html=1;rounded=1;" vertex="1" parent="1">
          <mxGeometry x="70" y="440" width="120" height="60" as="geometry" />
        </mxCell>
        <mxCell id="a3kX9UNYA6Rp2T8UEnDV-11" value="" style="edgeStyle=orthogonalEdgeStyle;rounded=0;orthogonalLoop=1;jettySize=auto;html=1;" edge="1" parent="1" source="a3kX9UNYA6Rp2T8UEnDV-8" target="a3kX9UNYA6Rp2T8UEnDV-10">
          <mxGeometry relative="1" as="geometry" />
        </mxCell>
        <mxCell id="a3kX9UNYA6Rp2T8UEnDV-8" value="DEV Close Jira" style="whiteSpace=wrap;html=1;rounded=1;" vertex="1" parent="1">
          <mxGeometry x="270" y="440" width="120" height="60" as="geometry" />
        </mxCell>
        <mxCell id="a3kX9UNYA6Rp2T8UEnDV-10" value="Requester accept" style="whiteSpace=wrap;html=1;rounded=1;" vertex="1" parent="1">
          <mxGeometry x="470" y="440" width="120" height="60" as="geometry" />
        </mxCell>
        <mxCell id="a3kX9UNYA6Rp2T8UEnDV-12" value="&lt;h1&gt;&lt;font style=&quot;font-size: 14px;&quot;&gt;Requester&lt;/font&gt;&lt;/h1&gt;" style="text;html=1;strokeColor=none;fillColor=none;spacing=5;spacingTop=-20;whiteSpace=wrap;overflow=hidden;rounded=0;" vertex="1" parent="1">
          <mxGeometry x="200" y="30" width="125" height="40" as="geometry" />
        </mxCell>
        <mxCell id="a3kX9UNYA6Rp2T8UEnDV-13" value="&lt;h1&gt;&lt;font style=&quot;font-size: 14px;&quot;&gt;DEV&lt;/font&gt;&lt;/h1&gt;" style="text;html=1;strokeColor=none;fillColor=none;spacing=5;spacingTop=-20;whiteSpace=wrap;overflow=hidden;rounded=0;" vertex="1" parent="1">
          <mxGeometry x="200" y="170" width="125" height="40" as="geometry" />
        </mxCell>
        <mxCell id="a3kX9UNYA6Rp2T8UEnDV-14" value="&lt;h1&gt;&lt;font style=&quot;font-size: 14px;&quot;&gt;Requester/Dev&lt;/font&gt;&lt;/h1&gt;" style="text;html=1;strokeColor=none;fillColor=none;spacing=5;spacingTop=-20;whiteSpace=wrap;overflow=hidden;rounded=0;" vertex="1" parent="1">
          <mxGeometry x="200" y="310" width="125" height="40" as="geometry" />
        </mxCell>
        <mxCell id="a3kX9UNYA6Rp2T8UEnDV-15" value="&lt;h1&gt;&lt;font style=&quot;font-size: 14px;&quot;&gt;PMO&lt;/font&gt;&lt;/h1&gt;" style="text;html=1;strokeColor=none;fillColor=none;spacing=5;spacingTop=-20;whiteSpace=wrap;overflow=hidden;rounded=0;" vertex="1" parent="1">
          <mxGeometry x="67.5" y="500" width="125" height="40" as="geometry" />
        </mxCell>
        <mxCell id="a3kX9UNYA6Rp2T8UEnDV-16" value="&lt;h1&gt;&lt;font style=&quot;font-size: 14px;&quot;&gt;PMO，DEV&lt;/font&gt;&lt;/h1&gt;" style="text;html=1;strokeColor=none;fillColor=none;spacing=5;spacingTop=-20;whiteSpace=wrap;overflow=hidden;rounded=0;" vertex="1" parent="1">
          <mxGeometry x="270" y="500" width="125" height="40" as="geometry" />
        </mxCell>
        <mxCell id="a3kX9UNYA6Rp2T8UEnDV-17" value="&lt;h1&gt;&lt;font style=&quot;font-size: 14px;&quot;&gt;Requester，PMO&lt;/font&gt;&lt;/h1&gt;" style="text;html=1;strokeColor=none;fillColor=none;spacing=5;spacingTop=-20;whiteSpace=wrap;overflow=hidden;rounded=0;" vertex="1" parent="1">
          <mxGeometry x="470" y="500" width="125" height="40" as="geometry" />
        </mxCell>
        <mxCell id="a3kX9UNYA6Rp2T8UEnDV-19" value="&lt;h1&gt;Role&lt;/h1&gt;&lt;div&gt;Requester&lt;/div&gt;&lt;div&gt;DEV&lt;/div&gt;&lt;div&gt;PMO&lt;/div&gt;" style="text;html=1;strokeColor=none;fillColor=none;spacing=5;spacingTop=-20;whiteSpace=wrap;overflow=hidden;rounded=0;fontSize=14;" vertex="1" parent="1">
          <mxGeometry x="630" y="30" width="190" height="120" as="geometry" />
        </mxCell>
        <mxCell id="a3kX9UNYA6Rp2T8UEnDV-20" value="&lt;h1&gt;Meeting&lt;/h1&gt;&lt;div&gt;BI-Weekly 运维周会&lt;/div&gt;&lt;div&gt;工程周会&lt;/div&gt;" style="text;html=1;strokeColor=none;fillColor=none;spacing=5;spacingTop=-20;whiteSpace=wrap;overflow=hidden;rounded=0;fontSize=14;" vertex="1" parent="1">
          <mxGeometry x="510" y="200" width="190" height="120" as="geometry" />
        </mxCell>
      </root>
    </mxGraphModel>
  </diagram>
</mxfile>
